<svg xmlns="http://www.w3.org/2000/svg" width="27.53" height="28" viewBox="0 0 27.53 28">
  <path id="Trazado_65" data-name="Trazado 65" d="M508.114,298.918v8.828c.021.4.046.709.067.936.021.252.046.445.067.579a1.151,1.151,0,0,0,.1.3v0a1.686,1.686,0,0,0,.222.3h0a.722.722,0,0,0,.3.185,1.757,1.757,0,0,0,.558.076,1.349,1.349,0,0,0,1.058-.386h0a1.781,1.781,0,0,0,.315-.617h0a6.155,6.155,0,0,0,.252-1.146c.067-.479.117-1.079.151-1.809s.051-1.587.051-2.6a26.851,26.851,0,0,0-.311-4.781h0a4.474,4.474,0,0,0-.449-1.289,2.848,2.848,0,0,0-.73-.882h0a3.723,3.723,0,0,0-1.117-.583,7.353,7.353,0,0,0-1.6-.34h0c-.642-.075-1.44-.134-2.409-.168-.953-.034-2.107-.055-3.455-.055-1.3,0-2.439.029-3.408.08a24.7,24.7,0,0,0-2.469.231h0a7.426,7.426,0,0,0-1.708.449,4.157,4.157,0,0,0-1.209.743h0a3.816,3.816,0,0,0-.81,1.1,5.942,5.942,0,0,0-.512,1.583h0a18.608,18.608,0,0,0-.273,2.313q-.094,1.379-.1,3.216c0,1.377.017,2.561.05,3.539.034,1,.08,1.834.151,2.494v0a8.712,8.712,0,0,0,.34,1.742,5.815,5.815,0,0,0,.63,1.394,3.678,3.678,0,0,0,1,1.007,5.268,5.268,0,0,0,1.5.7,11.73,11.73,0,0,0,2.175.416,27.86,27.86,0,0,0,2.964.139c1.108,0,1.973,0,2.582-.008.73,0,1.331-.013,1.813-.029.453-.013.89-.034,1.293-.063s.743-.067,1.054-.117h0a5.954,5.954,0,0,0,.818-.172,4.367,4.367,0,0,0,.642-.26h0a2.6,2.6,0,0,0,.5-.353c.084-.076.155-.151.227-.227a.862.862,0,0,1,1.033-.218l1.729.814a.885.885,0,0,1,.365,1.276,4.925,4.925,0,0,1-.575.722,4.863,4.863,0,0,1-1.188.9h0a6.978,6.978,0,0,1-1.574.6,14.772,14.772,0,0,1-2.065.361c-.768.084-1.7.143-2.792.185-1.117.038-2.364.059-3.749.059-1.322,0-2.523-.055-3.589-.16a17.359,17.359,0,0,1-2.8-.491h0a8.223,8.223,0,0,1-2.158-.894,6.42,6.42,0,0,1-1.616-1.394v0a7.718,7.718,0,0,1-1.1-1.923,12.284,12.284,0,0,1-.684-2.5,29.68,29.68,0,0,1-.361-3.232q-.119-1.851-.117-4.148a27.438,27.438,0,0,1,.7-6.91h0a9.856,9.856,0,0,1,.936-2.326,6.479,6.479,0,0,1,1.4-1.709h0a7.646,7.646,0,0,1,1.864-1.146,10.786,10.786,0,0,1,2.334-.7,26.367,26.367,0,0,1,2.964-.349c1.129-.076,2.4-.117,3.795-.117,1.474,0,2.792.034,3.963.1a28.778,28.778,0,0,1,2.989.306,10.666,10.666,0,0,1,2.267.6h0a6.494,6.494,0,0,1,1.746,1,5.183,5.183,0,0,1,1.251,1.469,7.5,7.5,0,0,1,.777,1.977h0a17.778,17.778,0,0,1,.411,2.6c.088,1.012.134,2.141.134,3.4,0,1-.025,1.923-.067,2.754s-.109,1.545-.2,2.166a10.815,10.815,0,0,1-.357,1.7,6.346,6.346,0,0,1-.554,1.339h0a4.011,4.011,0,0,1-.793,1,3.657,3.657,0,0,1-1.054.667h0a5.89,5.89,0,0,1-1.306.353,10.523,10.523,0,0,1-1.608.117,9.629,9.629,0,0,1-1.667-.134,5.106,5.106,0,0,1-1.352-.411,2.466,2.466,0,0,1-1.041-.9,3.224,3.224,0,0,1-.281-.508,3.8,3.8,0,0,1-.4.537,3.589,3.589,0,0,1-1.184.9,6.259,6.259,0,0,1-1.465.449,10.2,10.2,0,0,1-1.78.143,9.093,9.093,0,0,1-2.166-.231,4.657,4.657,0,0,1-1.625-.718h0a4.386,4.386,0,0,1-1.087-1.142,4.809,4.809,0,0,1-.63-1.482h0a13.016,13.016,0,0,1-.285-1.826c-.059-.684-.092-1.436-.092-2.254q0-1.272.088-2.33a13.989,13.989,0,0,1,.281-1.889h0a5.19,5.19,0,0,1,.613-1.574,4.779,4.779,0,0,1,1.087-1.259h0a4.4,4.4,0,0,1,1.641-.819,8.1,8.1,0,0,1,2.175-.265c.378,0,.73.008,1.062.034a8.032,8.032,0,0,1,.907.117h0a3.865,3.865,0,0,1,.823.244h0a4.067,4.067,0,0,1,.743.416h0a4.053,4.053,0,0,1,.575.512v-.327a.877.877,0,0,1,.877-.877h2.611a.883.883,0,0,1,.882.877Zm-4.295,5.68a5.955,5.955,0,0,0-.176-1.553h0a2.355,2.355,0,0,0-.483-.974h0a1.861,1.861,0,0,0-.861-.529v0a4.8,4.8,0,0,0-1.457-.193,4.93,4.93,0,0,0-1.579.21,1.392,1.392,0,0,0-.756.533v0a2.982,2.982,0,0,0-.382,1.058,8.451,8.451,0,0,0-.143,1.65v1.918c0,.453.017.852.046,1.2a6.234,6.234,0,0,0,.122.9h0a1.68,1.68,0,0,0,.235.575,1.648,1.648,0,0,0,.432.437l0,0a1.876,1.876,0,0,0,.684.277,5.106,5.106,0,0,0,1.1.1,7.438,7.438,0,0,0,1.356-.109,2.758,2.758,0,0,0,.865-.3h0a1.646,1.646,0,0,0,.512-.458h0a1.722,1.722,0,0,0,.286-.642h0a6.827,6.827,0,0,0,.143-1.033c.034-.4.05-.877.05-1.415Z" transform="translate(-487.2 -292.092)" fill="#11c1e0" fill-rule="evenodd"/>
</svg>
