<svg xmlns="http://www.w3.org/2000/svg" width="20.808" height="20.807" viewBox="0 0 20.808 20.807">
  <path id="Trazado_87" data-name="Trazado 87" d="M433.569,454.986c5.452-5.452,13.681,2.785,8.237,8.231q-4.5,4.5-9,9c-5.447,5.447-13.683-2.785-8.237-8.234l9-8.995Zm.241,11.626a.832.832,0,1,0,0,1.176.83.83,0,0,0,0-1.176Zm-1.816-1.816a.832.832,0,1,0,0,1.176.826.826,0,0,0,0-1.176Zm-1.816-1.816a.832.832,0,1,0,0,1.176.831.831,0,0,0,0-1.176Zm5.419,1.846a.834.834,0,1,0,0,1.179.834.834,0,0,0,0-1.179Zm-1.816-1.816a.834.834,0,1,0,0,1.179.836.836,0,0,0,0-1.179Zm-1.816-1.816a.834.834,0,1,0,0,1.179.839.839,0,0,0,0-1.179Zm5.395,1.874a.831.831,0,1,0,0,1.174.83.83,0,0,0,0-1.174Zm-1.816-1.816a.832.832,0,1,0,0,1.176.831.831,0,0,0,0-1.176Zm-1.817-1.816a.832.832,0,1,0,0,1.174.829.829,0,0,0,0-1.174Zm-7.98,5.717c-3.9,3.9,1.994,9.791,5.89,5.892l-5.89-5.892Zm14.89-3.1c3.9-3.9-2-9.782-5.892-5.892Z" transform="translate(-422.785 -453.196)" fill="#11c1e0" fill-rule="evenodd"/>
</svg>
