<svg xmlns="http://www.w3.org/2000/svg" width="19.992" height="25.628" viewBox="0 0 19.992 25.628">
  <path id="Trazado_76" data-name="Trazado 76" d="M314.976,310.7a61.379,61.379,0,0,0-19.716-.016,2.79,2.79,0,0,0-2.3,3.169q.3,1.973.605,3.947a1.289,1.289,0,0,0,1.448,1.079l4.005-.566a1.284,1.284,0,0,0,1.091-1.466l-.384-2.5a56.559,56.559,0,0,1,10.8.04l-.378,2.465a1.283,1.283,0,0,0,1.094,1.466l4,.566a1.288,1.288,0,0,0,1.448-1.079q.3-1.964.605-3.935A2.789,2.789,0,0,0,314.976,310.7Z" transform="translate(-109.713 434.254) rotate(-120)" fill="#11c1e0" fill-rule="evenodd"/>
</svg>
