<svg xmlns="http://www.w3.org/2000/svg" width="30.101" height="16.803" viewBox="0 0 30.101 16.803">
  <g id="Grupo_83" data-name="Grupo 83" transform="translate(-675.553 -130.258)">
    <g id="Grupo_82" data-name="Grupo 82" transform="translate(677.998 130.258)">
      <path id="Trazado_80" data-name="Trazado 80" d="M705.119,135.3c-1.16-3.255-4.27-5.043-7.91-5.043h-9.391c-3.64,0-6.75,1.789-7.91,5.043Z" transform="translate(-679.908 -130.258)" fill="#11c1e0"/>
      <path id="Trazado_81" data-name="Trazado 81" d="M679.908,151.2c1.16,3.255,4.27,5.043,7.91,5.043h9.391c3.64,0,6.75-1.789,7.91-5.043Z" transform="translate(-679.908 -139.444)" fill="#11c1e0"/>
    </g>
    <path id="Trazado_82" data-name="Trazado 82" d="M703.44,141.271H677.766a2.213,2.213,0,0,0,0,4.426H703.44a2.213,2.213,0,0,0,0-4.426Zm-1.053,3.684a2.575,2.575,0,0,1-2.055-1.153c-.445-.519-.725-.812-1.314-.812s-.87.294-1.315.812a2.408,2.408,0,0,1-4.11,0c-.445-.519-.724-.812-1.313-.812s-.867.294-1.312.812a2.4,2.4,0,0,1-4.107,0c-.444-.518-.724-.812-1.313-.812s-.868.294-1.312.812a2.405,2.405,0,0,1-4.107,0c-.444-.518-.724-.812-1.312-.812v-.976a2.572,2.572,0,0,1,2.053,1.153c.444.519.724.812,1.312.812s.868-.293,1.312-.812a2.406,2.406,0,0,1,4.107,0c.444.519.724.812,1.312.812s.868-.293,1.312-.812a2.406,2.406,0,0,1,4.108,0c.444.519.724.812,1.313.812s.87-.293,1.315-.812a2.408,2.408,0,0,1,4.11,0c.445.519.725.812,1.315.812Z" transform="translate(0 -4.83)" fill="#11c1e0"/>
  </g>
</svg>
