<svg xmlns="http://www.w3.org/2000/svg" width="26.768" height="24" viewBox="0 0 26.768 24">
  <path id="Trazado_78" data-name="Trazado 78" d="M528.613,304.678a3.88,3.88,0,0,0,0-5.376c-.029,1.784-.029,3.592,0,5.376Zm-22.85-5.144c-.658-.3-1.006-.405-1.425-.608a.339.339,0,0,0-.459.228,5.629,5.629,0,0,0-.239,1.031c.72.213,1.57.329,2.692.64l.011-.112a1.134,1.134,0,0,0-.579-1.179Zm3.053,1.581c-.022-.329-.051-.575-.047-.752.011-.376.061-.463.691-.6a57.511,57.511,0,0,0,17.394-6.317c.091-.051.441.025.427.145a17.455,17.455,0,0,0-.174,1.809c-8.357,4.153-9.388,3.744-18.291,5.712Zm-2.659-2.236a1.283,1.283,0,0,1,.695,1.342,20.266,20.266,0,0,0-.018,3.567,1.278,1.278,0,0,1-.695,1.32c-.785.34-1.671.666-2.167.894a.4.4,0,0,1-.536-.228c-.77-1.664-.579-6.089-.018-7.539a.415.415,0,0,1,.55-.26c.5.232,1.4.561,2.189.9Zm22.119,12.9a97.362,97.362,0,0,1,0-19.587c.011-.127-.354-.206-.452-.155a62.487,62.487,0,0,1-11.921,5.2c-2.156.644-4.566,1.208-7.793,1.907-.514.112-.514,5.582,0,5.694,8.816,1.907,11.53,2.811,19.713,7.1.1.051.463-.029.452-.156ZM513,307.659a18.5,18.5,0,0,0,.318,7.948c.033.163-.04.394-.181.405-4.381.358-4.92-6.671-4.906-9.457a.57.57,0,0,1,.17-.409.393.393,0,0,1,.376-.116c1.36.286,2.9.575,3.918.908a.467.467,0,0,1,.289.279A.826.826,0,0,1,513,307.659Z" transform="translate(-502.927 -292.026)" fill="#11c1e0" fill-rule="evenodd"/>
</svg>
