<svg xmlns="http://www.w3.org/2000/svg" width="33.622" height="28" viewBox="0 0 33.622 28">
  <path id="Trazado_63" data-name="Trazado 63" d="M228.5,253.994h32.93a.318.318,0,0,1,.346.272v1.5a.318.318,0,0,1-.346.276H228.5a.318.318,0,0,1-.346-.276v-1.5a.315.315,0,0,1,.346-.272Zm6.655-.944h2.011V242.373H243.7V253.05h11.089a.973.973,0,0,0,.968-.972v-9.527l0-.107-9.82-8.839a1.449,1.449,0,0,0-.964-.416h0a1.456,1.456,0,0,0-.96.416l-9.82,8.839,0,.107v9.527a.973.973,0,0,0,.968.972Zm11.172-10.677h6.449v5.745h-6.449v-5.745Zm10.928.062-10.644-9.581a2.451,2.451,0,0,0-1.64-.676h0a2.434,2.434,0,0,0-1.636.676l-10.648,9.581H231.9a1.277,1.277,0,0,1-1.187-1.743,3.426,3.426,0,0,1,.874-1.286l11.959-10.764a2.007,2.007,0,0,1,2.856,0l11.955,10.764a3.42,3.42,0,0,1,.878,1.286,1.277,1.277,0,0,1-1.187,1.743Z" transform="translate(-228.15 -228.046)" fill="#11c1e0" fill-rule="evenodd"/>
</svg>
