<svg xmlns="http://www.w3.org/2000/svg" width="17.002" height="28" viewBox="0 0 17.002 28">
  <g id="Grupo_81" data-name="Grupo 81" transform="translate(-1437 -547)">
    <g id="Grupo_80" data-name="Grupo 80" transform="translate(1437 547)">
      <path id="Trazado_75" data-name="Trazado 75" d="M414.426,357.635h0Zm8.15,26.449h-13.13a1.94,1.94,0,0,1-1.937-1.938V358.022a1.94,1.94,0,0,1,1.938-1.937h13.13a1.942,1.942,0,0,1,1.934,1.938v24.125a1.942,1.942,0,0,1-1.934,1.938Zm-1.512-23.53H410.954v17.721h10.109V360.554Zm-6.638-2.267a.653.653,0,0,1,0-1.307h3.163a.653.653,0,1,1,0,1.307Zm8.373,20.948V359.591a.329.329,0,0,0-.025-.117.871.871,0,0,0-.843-.655H410.083a.87.87,0,0,0-.843.655.329.329,0,0,0-.025.117v19.644a.276.276,0,0,0,.028.12.863.863,0,0,0,.839.659h11.848a.87.87,0,0,0,.843-.659.332.332,0,0,0,.025-.12ZM416.71,381a.988.988,0,0,0-1.406,0,1,1,0,1,0,1.406,0Z" transform="translate(-407.508 -356.084)" fill="#11c1e0" fill-rule="evenodd"/>
    </g>
  </g>
</svg>
