<svg xmlns="http://www.w3.org/2000/svg" width="28.004" height="28" viewBox="0 0 28.004 28">
  <path id="Trazado_72" data-name="Trazado 72" d="M487.938,311.169l1.791.738,3.146-1.625c1.078,1.074,2.149,2.149,3.224,3.224l-1.621,3.146.739,1.791,3.375,1.078v4.549l-3.375,1.075-.739,1.791,1.621,3.15q-1.612,1.606-3.224,3.22l-3.146-1.625-1.791.742-1.075,3.371h-4.549l-1.078-3.371-1.791-.742-3.146,1.625q-1.612-1.612-3.22-3.22l1.621-3.15-.742-1.791-3.371-1.075v-4.549l3.371-1.078.742-1.791-1.621-3.146q1.612-1.612,3.22-3.224l3.146,1.625,1.791-.738,1.078-3.375h4.549l1.075,3.375Zm-3.349,16.738a6.113,6.113,0,1,0-6.111-6.115,6.112,6.112,0,0,0,6.111,6.115Zm0-8.991a2.878,2.878,0,1,0,2.876,2.876,2.875,2.875,0,0,0-2.876-2.876Zm0-5.173a8.051,8.051,0,1,0,8.053,8.05A8.053,8.053,0,0,0,484.589,313.743Z" transform="translate(-470.587 -307.794)" fill="#11c1e0" fill-rule="evenodd"/>
</svg>
