<svg xmlns="http://www.w3.org/2000/svg" width="28.002" height="28" viewBox="0 0 28.002 28">
  <path id="Trazado_66" data-name="Trazado 66" d="M383.063,319.627c-1.663-.928-8.029-7.291-8.965-8.965a2.644,2.644,0,0,1-.32-1.682,2.686,2.686,0,0,1,.765-1.53l13.893-13.9a3.836,3.836,0,0,1,2.405-1.145l4.015-.411a3.855,3.855,0,0,1,3.219,1.141l2.512,2.515a3.836,3.836,0,0,1,1.141,3.216l-.407,4.011a3.853,3.853,0,0,1-1.145,2.409l-13.9,13.893a2.674,2.674,0,0,1-3.212.445ZM395.549,295.5a2.671,2.671,0,1,0,2.675,2.671A2.675,2.675,0,0,0,395.549,295.5Z" transform="translate(-373.751 -291.973)" fill="#11c1e0" fill-rule="evenodd"/>
</svg>
