<svg xmlns="http://www.w3.org/2000/svg" width="27.527" height="24.831" viewBox="0 0 27.527 24.831">
  <path id="Trazado_83" data-name="Trazado 83" d="M395.331,341.8a11.917,11.917,0,0,0,0-15.795.775.775,0,0,1,.033-1.063l.725-.729a.767.767,0,0,1,.57-.228.753.753,0,0,1,.556.262,14.491,14.491,0,0,1,0,19.311.75.75,0,0,1-.556.258.743.743,0,0,1-.57-.229l-.725-.725a.775.775,0,0,1-.033-1.063Zm-16.387,0a11.925,11.925,0,0,1,0-15.795.772.772,0,0,0-.033-1.063l-.729-.729a.77.77,0,0,0-1.126.033,14.5,14.5,0,0,0,0,19.311.756.756,0,0,0,.556.258.733.733,0,0,0,.569-.229l.729-.725a.772.772,0,0,0,.033-1.063Zm3.229-3.192a.769.769,0,0,1-.046,1.04l-.732.732a.771.771,0,0,1-1.139-.046,9.975,9.975,0,0,1,0-12.861.771.771,0,0,1,1.139-.046l.732.728a.774.774,0,0,1,.046,1.043,7.4,7.4,0,0,0,0,9.411Zm7.093,8.076a2.121,2.121,0,1,1-4.242.01V330.759a2.121,2.121,0,0,1,4.242,0c-.063,5.642,0,10.272,0,15.921ZM392.1,338.6a.77.77,0,0,0,.05,1.04l.732.732a.767.767,0,0,0,1.136-.046,9.959,9.959,0,0,0,0-12.861.767.767,0,0,0-1.136-.046l-.732.728a.774.774,0,0,0-.05,1.043A7.391,7.391,0,0,1,392.1,338.6Z" transform="translate(-373.373 -323.981)" fill="#11c1e0" fill-rule="evenodd"/>
</svg>
