<svg xmlns="http://www.w3.org/2000/svg" width="15.182" height="29.606" viewBox="0 0 15.182 29.606">
  <path id="Trazado_77" data-name="Trazado 77" d="M554.75,347.523a2.6,2.6,0,0,0-2.593,2.6v20.542a2.6,2.6,0,0,0,2.593,2.6h10.09a2.5,2.5,0,0,0,2.5-2.5v-20.74a2.5,2.5,0,0,0-2.5-2.5H564.2V343.86l-.587-.206-.377.431-.44-.431H562.3l-.441.434-.437-.434h-.5l-.441.431-.437-.431h-.5l-.441.431-.437-.431h-.5l-.437.431-.441-.431h-.5l-.437.431-.38-.431-.586.206v3.663Zm6.1,13.574a.282.282,0,0,1,.283.281v2.176a.283.283,0,0,1-.283.284h-2.329a.285.285,0,0,1-.283-.284v-2.176a.284.284,0,0,1,.283-.281Zm3.476,0a.282.282,0,0,1,.28.281v2.176a.282.282,0,0,1-.28.284H562a.282.282,0,0,1-.283-.284v-2.176A.281.281,0,0,1,562,361.1Zm-6.95,6.731a.282.282,0,0,1,.278.283v2.179a.281.281,0,0,1-.278.281h-2.332a.282.282,0,0,1-.28-.281v-2.179a.282.282,0,0,1,.28-.283Zm3.473,0a.283.283,0,0,1,.283.283v2.179a.282.282,0,0,1-.283.281h-2.329a.284.284,0,0,1-.283-.281v-2.179a.284.284,0,0,1,.283-.283Zm3.476,0a.282.282,0,0,1,.28.283v2.179a.282.282,0,0,1-.28.281H562a.281.281,0,0,1-.283-.281v-2.179a.282.282,0,0,1,.283-.283Zm-6.95-3.366a.282.282,0,0,1,.278.283v2.179a.281.281,0,0,1-.278.281h-2.332a.282.282,0,0,1-.28-.281v-2.179a.282.282,0,0,1,.28-.283Zm3.473,0a.283.283,0,0,1,.283.283v2.179a.282.282,0,0,1-.283.281h-2.329a.284.284,0,0,1-.283-.281v-2.179a.284.284,0,0,1,.283-.283Zm3.476,0a.282.282,0,0,1,.28.283v2.179a.282.282,0,0,1-.28.281H562a.281.281,0,0,1-.283-.281v-2.179a.282.282,0,0,1,.283-.283Zm-6.95-3.365a.281.281,0,0,1,.278.281v2.176a.282.282,0,0,1-.278.284h-2.332a.282.282,0,0,1-.28-.284v-2.176a.282.282,0,0,1,.28-.281Zm-2.611-6.947a.4.4,0,0,1,.4-.4h9.163a.4.4,0,0,1,.4.4v4.667a.4.4,0,0,1-.4.4h-9.163a.4.4,0,0,1-.4-.4v-4.669Zm8.758-6.627v2.132h-7.447v-5.014l.1.1h.438l.439-.432.437.432h.5l.44-.432.437.432h.5l.437-.432.441.432h.493l.441-.432.441.432h.493l.441-.432.437.432h.437l.1-.1v2.881Zm-9.263,2.676h11.079v1.467H554.263Z" transform="translate(-552.157 -343.654)" fill="#11c1e0" fill-rule="evenodd"/>
</svg>
