<svg xmlns="http://www.w3.org/2000/svg" width="36.808" height="24.034" viewBox="0 0 36.808 24.034">
  <path id="Trazado_58" data-name="Trazado 58" d="M378.012,356.561h25.054a1.866,1.866,0,0,1,1.861,1.861v15.4a1.863,1.863,0,0,1-1.861,1.857H378.012a1.862,1.862,0,0,1-1.857-1.857v-15.4a1.865,1.865,0,0,1,1.857-1.861Zm29.307,20.707H373.835a1.67,1.67,0,0,0-1.663,1.663h0a1.67,1.67,0,0,0,1.663,1.664h33.484a1.667,1.667,0,0,0,1.66-1.664h0a1.667,1.667,0,0,0-1.66-1.663Zm-3.218,2.361H392.592a.7.7,0,0,1-.7-.7h0a.7.7,0,0,1,.7-.7H404.1a.7.7,0,0,1,.694.7h0a.7.7,0,0,1-.694.7Zm-2.211-19.656h-22.7v12.536h22.7V359.973Zm-23.537-1.67a.835.835,0,0,0-.833.834v14.209a.835.835,0,0,0,.833.833h24.371a.833.833,0,0,0,.833-.833V359.136a.833.833,0,0,0-.833-.834Z" transform="translate(-372.171 -356.561)" fill="#11c1e0" fill-rule="evenodd"/>
</svg>
