<svg xmlns="http://www.w3.org/2000/svg" width="28" height="28" viewBox="0 0 28 28">
  <path id="Trazado_49" data-name="Trazado 49" d="M484.7,275.885a14,14,0,1,0,14,14,14,14,0,0,0-14-14Zm-.838,21.283V295.9a9.2,9.2,0,0,1-1.66-.159,3.8,3.8,0,0,1-1.408-.547,2.582,2.582,0,0,1-.931-1.086,4.126,4.126,0,0,1-.33-1.741l-.015-.434H481.6a4.42,4.42,0,0,0,.124,1.21,1.127,1.127,0,0,0,.407.617,1.511,1.511,0,0,0,.64.244c.213.031.578.062,1.09.1v-3.572c-.717-.05-1.291-.112-1.729-.186a3.755,3.755,0,0,1-1.28-.458,2.2,2.2,0,0,1-.88-1,4.332,4.332,0,0,1-.306-1.788,3.544,3.544,0,0,1,.539-2.117,2.635,2.635,0,0,1,1.489-1,8.874,8.874,0,0,1,2.168-.256V282.6h1.675v1.125a10.158,10.158,0,0,1,2.253.306,2.2,2.2,0,0,1,1.326.993,4.35,4.35,0,0,1,.458,2.242h-2.028a1.425,1.425,0,0,1-.015-.24,1.444,1.444,0,0,0-.384-1.179,2.051,2.051,0,0,0-1.28-.306h-.33v3.285a11.565,11.565,0,0,1,2.249.268,2.7,2.7,0,0,1,1.516.927,3.241,3.241,0,0,1,.578,2.094,4.839,4.839,0,0,1-.419,2.214,2.422,2.422,0,0,1-1.3,1.156,7.709,7.709,0,0,1-2.4.415h-.217v1.268h-1.675Zm1.675-3.056V290.56a9.634,9.634,0,0,1,1.241.163,1.219,1.219,0,0,1,.725.469,1.9,1.9,0,0,1,.283,1.16,1.627,1.627,0,0,1-.5,1.381,2.53,2.53,0,0,1-1.532.38Zm-1.675-8.571v3.231a3.1,3.1,0,0,1-1.547-.365,1.477,1.477,0,0,1-.57-1.35,1.711,1.711,0,0,1,.237-1.008,1.063,1.063,0,0,1,.644-.411,5.375,5.375,0,0,1,1.1-.1Zm.838-6.391a10.733,10.733,0,1,1-10.731,10.735A10.733,10.733,0,0,1,484.7,279.15Zm0-1.427a12.16,12.16,0,1,1-12.158,12.162A12.158,12.158,0,0,1,484.7,277.723Z" transform="translate(-470.703 -275.885)" fill="#11c1e0" fill-rule="evenodd"/>
</svg>
