<svg xmlns="http://www.w3.org/2000/svg" width="19.616" height="28" viewBox="0 0 19.616 28">
  <path id="Trazado_86" data-name="Trazado 86" d="M258.526,270.605a11.759,11.759,0,0,0,.546-2.369h0c.016-.16.032-.331.038-.5.01-.154.013-.327.013-.517,0-.138,0-.247,0-.327s-.01-.193-.016-.3c-.109-.87-1.306-1.066-2.593-1.274-1.515-.247-3.133-.51-3.784-1.839l-.01.01a5.328,5.328,0,0,0-2.115,3.46c-.022.167-.035.343-.045.53s-.01.363,0,.555h0a8.258,8.258,0,0,0,1.47,4.247h0a3.58,3.58,0,0,0,2.8,1.621,3.162,3.162,0,0,0,2.09-.851v0a6.128,6.128,0,0,0,1.615-2.446Zm-8.371,1.971c-6.834-10.871,3.845-14.99,4.259-13.484.106.392.125.209.385.029,3.261-2.25,10.364,4.982,4.648,13.51a10.791,10.791,0,0,1-1.3.25,5.614,5.614,0,0,1-.719.761h0a3.947,3.947,0,0,1-2.606,1.046,4.286,4.286,0,0,1-3.345-1.833,9.376,9.376,0,0,1-1.322-.279Zm14.479,12.38c.016-3.534-.238-7.264-4.449-8.3.347.652.08,1.236.774,3.113l-3.178-1.737q-1.517,3.572-3.03,7.145l-3.027-7.145-3.178,1.737c.674-1.833.437-2.433.751-3.065-4.044,1.091-4.291,4.789-4.279,8.255a1.761,1.761,0,0,0,1.756,1.749h16.107A1.756,1.756,0,0,0,264.634,284.956Z" transform="translate(-245.019 -258.706)" fill="#11c1e0" fill-rule="evenodd"/>
</svg>
