<svg xmlns="http://www.w3.org/2000/svg" width="25.263" height="21.509" viewBox="0 0 25.263 21.509">
  <g id="Grupo_85" data-name="Grupo 85" transform="translate(-524.413 -343.543)">
    <g id="Grupo_84" data-name="Grupo 84" transform="translate(524.413 343.543)">
      <path id="Trazado_84" data-name="Trazado 84" d="M537.627,359.891a6.4,6.4,0,0,1,9.852-5.409,7.1,7.1,0,0,0,2.2-4.582c0-7.533-10.843-8.776-12.631-1.542-1.789-7.234-12.632-5.991-12.632,1.542,0,4.977,8.57,9.482,12.632,12.362.269-.19.558-.388.863-.592A6.335,6.335,0,0,1,537.627,359.891Zm.482-10.759a6.181,6.181,0,0,1,1.749-3.07,6.053,6.053,0,0,1,3.164-1.546.881.881,0,0,1,.29,1.738,4.3,4.3,0,0,0-2.248,1.092,4.428,4.428,0,0,0-1.243,2.207.881.881,0,0,1-1.711-.422Zm-8.371-2.641a3.384,3.384,0,0,0-1.537,1.286,3.733,3.733,0,0,0-.457,2.209,3.364,3.364,0,0,0,.382,1.33,6.408,6.408,0,0,0,.985,1.387.88.88,0,0,1-1.306,1.181,8.349,8.349,0,0,1-1.254-1.775,5.1,5.1,0,0,1-.567-2.028,5.46,5.46,0,0,1,.71-3.223,5.11,5.11,0,0,1,2.312-1.969.88.88,0,0,1,.731,1.6Z" transform="translate(-524.413 -343.543)" fill="#11c1e0" fill-rule="evenodd"/>
    </g>
    <path id="Trazado_85" data-name="Trazado 85" d="M537.713,349.833a5.16,5.16,0,1,0,5.158,5.16,5.161,5.161,0,0,0-5.158-5.16Zm-.311,7.844v-.466a3.461,3.461,0,0,1-.61-.059,1.428,1.428,0,0,1-.519-.2.958.958,0,0,1-.343-.4,1.527,1.527,0,0,1-.121-.642l-.005-.16h.767a1.659,1.659,0,0,0,.046.445.408.408,0,0,0,.151.228.533.533,0,0,0,.235.091c.078.011.212.023.4.036v-1.316q-.395-.029-.635-.069a1.374,1.374,0,0,1-.473-.167.828.828,0,0,1-.324-.37,1.593,1.593,0,0,1-.114-.66,1.318,1.318,0,0,1,.2-.781.964.964,0,0,1,.55-.368,3.219,3.219,0,0,1,.8-.094v-.413h.619v.414a3.763,3.763,0,0,1,.831.114.816.816,0,0,1,.489.366,1.605,1.605,0,0,1,.169.825h-.749a.615.615,0,0,1-.005-.089.539.539,0,0,0-.141-.434.757.757,0,0,0-.473-.114h-.121V354.6a4.484,4.484,0,0,1,.829.1.986.986,0,0,1,.558.343,1.194,1.194,0,0,1,.214.77,1.78,1.78,0,0,1-.155.816.879.879,0,0,1-.48.425,2.817,2.817,0,0,1-.886.155h-.08v.466H537.4Zm.619-1.126v-1.309a3.616,3.616,0,0,1,.457.06.444.444,0,0,1,.267.173.7.7,0,0,1,.1.427.605.605,0,0,1-.183.51.939.939,0,0,1-.566.139Zm-.619-3.159v1.19a1.118,1.118,0,0,1-.569-.133.541.541,0,0,1-.21-.5.627.627,0,0,1,.087-.372.4.4,0,0,1,.238-.153,2.1,2.1,0,0,1,.4-.036Z" transform="translate(6.337 4.898)" fill="#11c1e0" fill-rule="evenodd"/>
  </g>
</svg>
