<svg xmlns="http://www.w3.org/2000/svg" width="21.66" height="23.574" viewBox="0 0 21.66 23.574">
  <path id="Trazado_57" data-name="Trazado 57" d="M503.4,326.883c.414,11.761-1.718,17.745,10.831,20.754,12.546-3.009,10.414-8.993,10.828-20.754.133-3.759-21.792-3.759-21.659,0Zm2.015,8.8c-.127-2.8-.044-5.629-.127-8.445a11.228,11.228,0,0,1,2.819-.826,35.317,35.317,0,0,1,5.841-.468v9.74Zm8.534,0h9.094a12.9,12.9,0,0,1-1.168,5.531c-1.452,2.626-4.857,3.8-7.645,4.493l-.282-.073Z" transform="translate(-503.403 -324.063)" fill="#11c1e0" fill-rule="evenodd"/>
</svg>
