<svg xmlns="http://www.w3.org/2000/svg" width="14.182" height="21.013" viewBox="0 0 14.182 21.013">
  <g id="Grupo_74" data-name="Grupo 74" transform="translate(-541.963 -316.94)">
    <path id="Trazado_56" data-name="Trazado 56" d="M547.623,316.94h2.86a.522.522,0,0,1,.519.519V322.1h4.627a.518.518,0,0,1,.517.517v2.86a.518.518,0,0,1-.517.517H551l0,11.441a.517.517,0,0,1-.517.517h-2.86a.519.519,0,0,1-.517-.517V326H542.48a.516.516,0,0,1-.517-.517v-2.86a.518.518,0,0,1,.517-.517h4.626v-4.645A.518.518,0,0,1,547.623,316.94Z" transform="translate(0 0)" fill="#11c1e0" fill-rule="evenodd"/>
  </g>
</svg>
