<svg xmlns="http://www.w3.org/2000/svg" width="26.599" height="28" viewBox="0 0 26.599 28">
  <path id="Trazado_62" data-name="Trazado 62" d="M472.18,559.32h2.479l6.2-22.243a3.4,3.4,0,0,1,3.343-2.386h.564a3.407,3.407,0,0,1,3.343,2.386l6.2,22.243H496.8a.992.992,0,0,1,.989.989v1.39a.993.993,0,0,1-.989.992H472.18a.994.994,0,0,1-.993-.992v-1.39a.993.993,0,0,1,.993-.989Zm20.387,0-1.02-3.651H477.431l-1.02,3.651Zm-2.526-9.049-1.07-3.849h-8.963l-1.07,3.849Zm-2.577-9.244-.973-3.5a1.746,1.746,0,0,0-1.744-1.148h-.518a1.745,1.745,0,0,0-1.744,1.148l-.973,3.5Z" transform="translate(-471.188 -534.691)" fill="#11c1e0" fill-rule="evenodd"/>
</svg>
