<svg xmlns="http://www.w3.org/2000/svg" width="29.37" height="29.494" viewBox="0 0 29.37 29.494">
  <path id="Trazado_73" data-name="Trazado 73" d="M375.4,394.143h25.571a1.9,1.9,0,0,1,1.9,1.9v15.953a1.9,1.9,0,0,1-1.9,1.9H375.4a1.9,1.9,0,0,1-1.9-1.9V396.042a1.9,1.9,0,0,1,1.9-1.9Zm11.188-2.549-6.073-3.507a.415.415,0,0,1-.156-.576.422.422,0,0,1,.58-.156l6.65,3.841a2.885,2.885,0,0,1,1.195,0l6.653-3.841a.422.422,0,0,1,.42.733l-6.073,3.507a3.021,3.021,0,0,1,1.153,1.33h-5.5a3.021,3.021,0,0,1,1.153-1.33Zm-2.066,22.97h7.046v.931h3.483a.731.731,0,0,1,.729.726v.569h-15.47v-.569a.726.726,0,0,1,.729-.726h3.483v-.931Zm15.463-17.078h-23.6v13.341h23.6V397.487Zm-24.45-1.7a.851.851,0,0,0-.851.854v15.043a.851.851,0,0,0,.851.854h25.3a.851.851,0,0,0,.851-.854V396.636a.851.851,0,0,0-.851-.854Z" transform="translate(-373.498 -387.296)" fill="#11c1e0" fill-rule="evenodd"/>
</svg>
