<svg xmlns="http://www.w3.org/2000/svg" width="28.922" height="28" viewBox="0 0 28.922 28">
  <path id="Trazado_54" data-name="Trazado 54" d="M273.212,313.121h14.046a1.95,1.95,0,0,1,1.947,1.947v17.364a1.95,1.95,0,0,1-1.947,1.947H273.212V313.121Zm-2.912-1.84v-2.62a1.022,1.022,0,0,1,1.018-1.018h0a1.023,1.023,0,0,1,1.022,1.018V334.9a.747.747,0,0,1-.747.748h-7.276a.75.75,0,0,1-.747-.748V312.028a.75.75,0,0,1,.747-.747Zm-7.66,23.1h-.409a1.952,1.952,0,0,1-1.947-1.947v-17.1a1.95,1.95,0,0,1,1.947-1.947h.409v20.991Zm20.617-5.948a.3.3,0,0,0-.3.3v2.31a.3.3,0,0,0,.3.3h2.47a.3.3,0,0,0,.3-.3v-2.31a.3.3,0,0,0-.3-.3Zm-3.688,0a.3.3,0,0,0-.3.3v2.31a.3.3,0,0,0,.3.3h2.467a.3.3,0,0,0,.3-.3v-2.31a.3.3,0,0,0-.3-.3Zm-3.691,0a.3.3,0,0,0-.3.3v2.31a.3.3,0,0,0,.3.3h2.47a.3.3,0,0,0,.3-.3v-2.31a.3.3,0,0,0-.3-.3Zm7.379-3.574a.3.3,0,0,0-.3.3v2.31a.3.3,0,0,0,.3.3h2.47a.3.3,0,0,0,.3-.3v-2.31a.3.3,0,0,0-.3-.3Zm-3.688,0a.3.3,0,0,0-.3.3v2.31a.3.3,0,0,0,.3.3h2.467a.3.3,0,0,0,.3-.3v-2.31a.3.3,0,0,0-.3-.3Zm-3.691,0a.3.3,0,0,0-.3.3v2.31a.3.3,0,0,0,.3.3h2.47a.3.3,0,0,0,.3-.3v-2.31a.3.3,0,0,0-.3-.3Zm7.379-3.57a.3.3,0,0,0-.3.3v2.31a.3.3,0,0,0,.3.3h2.47a.3.3,0,0,0,.3-.3v-2.31a.3.3,0,0,0-.3-.3Zm-3.688,0a.3.3,0,0,0-.3.3v2.31a.3.3,0,0,0,.3.3h2.467a.3.3,0,0,0,.3-.3v-2.31a.3.3,0,0,0-.3-.3Zm-3.691,0a.3.3,0,0,0-.3.3v2.31a.3.3,0,0,0,.3.3h2.47a.3.3,0,0,0,.3-.3v-2.31a.3.3,0,0,0-.3-.3Zm10.458-4.677a.3.3,0,0,0-.3-.3H275.622a.3.3,0,0,0-.3.3v2.214a.3.3,0,0,0,.3.3h10.416a.3.3,0,0,0,.3-.3Z" transform="translate(-260.284 -307.643)" fill="#11c1e0" fill-rule="evenodd"/>
</svg>
