<svg xmlns="http://www.w3.org/2000/svg" width="19.146" height="28" viewBox="0 0 19.146 28">
  <path id="Trazado_79" data-name="Trazado 79" d="M741.13,185.56a3.771,3.771,0,0,1-1.106,3.031c-.482-8.034-5.773-11.258-5.773-11.258,1.01,6.062-4.523,6.014-7.505,13.4s6.591,14.6,6.591,14.6H734.5s-4.935-3.714-3.4-7.524,4.389-3.784,3.869-6.909a7.325,7.325,0,0,1,2.975,5.8,1.944,1.944,0,0,0,.57-1.562s3.336,1.865,1.711,6.4a7.031,7.031,0,0,1-3.521,3.794h.909a13.639,13.639,0,0,0,6.831-7.361C747.6,189.178,741.13,185.56,741.13,185.56Z" transform="translate(-726.169 -177.333)" fill="#11c1e0"/>
</svg>
