<svg xmlns="http://www.w3.org/2000/svg" width="27.968" height="28" viewBox="0 0 27.968 28">
  <path id="Trazado_59" data-name="Trazado 59" d="M377.022,380.94c-1.239-1.221-2.034-2.937-1.12-3.852l3.754-3.758-.517-.513c-1.637-1.637-6.89,1.236-8.675,3.909a4.147,4.147,0,0,0,.2,5.037l-12.18,12.18a2.768,2.768,0,0,0-.795,1.586c-.322,2.313,2.475,5.1,4.78,4.784a2.8,2.8,0,0,0,1.59-.8L376.169,387.4c1.536,1.521,3.6,1.08,5.069.1,2.674-1.785,5.546-7.038,3.909-8.675l-.517-.517-3.754,3.754c-.914.914-2.638.123-3.855-1.12Zm7.909,14.76a11.069,11.069,0,0,1-1.807,2.41l-.043.036a10.916,10.916,0,0,1-2.367,1.771,2.791,2.791,0,0,1-3.36-.466h0l-5.676-5.676,1-1.008,5.68,5.68h0a1.369,1.369,0,0,0,.788.4,1.246,1.246,0,0,0,.4-.007l-6.471-6.468,3.219-3.223a4.618,4.618,0,0,0,.914.379l6.1,6.1c.13-.2.256-.4.376-.618a1.363,1.363,0,0,0-.231-1.662l-3.758-3.761a6.462,6.462,0,0,0,1.481-.527l3.281,3.281a2.791,2.791,0,0,1,.466,3.36Zm-17.885-12.2-3.667-3.664-1.518.069-3.992-4.91,2.143-2.139,4.9,3.993-.069,1.518,2.291,2.291,1.377,1.376-1.467,1.467Zm-6.58,14.026a2.837,2.837,0,1,1,4.014,0A2.839,2.839,0,0,1,360.466,397.524Z" transform="translate(-357.659 -372.339)" fill="#11c1e0" fill-rule="evenodd"/>
</svg>
