<svg xmlns="http://www.w3.org/2000/svg" width="23.019" height="28" viewBox="0 0 23.019 28">
  <path id="Trazado_48" data-name="Trazado 48" d="M552.343,321.373h4.826V318.7h-.786v-2.075h.786v-.857h-.786V313.7h.786v-.857h-.786v-2.075h.786v-3.143h-3.407a.147.147,0,0,0-.149.14v.3h-.491a.149.149,0,0,0-.146.14v.73h-.686a.7.7,0,0,0-.379.618v11.4a.433.433,0,0,0,.432.432Zm-2.556,1.922V322.27a.272.272,0,0,1,.273-.264h22.472a.272.272,0,0,1,.273.264V323.3a.269.269,0,0,1-.273.261H550.06a.269.269,0,0,1-.273-.261Zm10.969-22.367v-1.842a.285.285,0,0,1,.292-.28h.345V295.7a.143.143,0,0,1,.146-.14h.1a.143.143,0,0,1,.146.14v3.112h.342a.285.285,0,0,1,.292.28v1.842h.966a.29.29,0,0,1,.292.283v1.317l.789.8h.323a.467.467,0,0,1,.463.466V320.91a.468.468,0,0,1-.463.463h-6.4a.464.464,0,0,1-.463-.463V303.8a.464.464,0,0,1,.463-.466h.32l.792-.8v-1.317a.288.288,0,0,1,.292-.283Zm1.3,4.721v2.627h2.373v-2.627Zm0,3.711v2.627h2.373V309.36Zm0,3.714V315.7h2.373v-2.627Zm0,3.714v2.627h2.373v-2.627Zm-.938,2.627v-2.627h-2.376v2.627Zm0-3.714v-2.627h-2.376V315.7Zm0-3.714V309.36h-2.376v2.627Zm0-3.711v-2.627h-2.376v2.627Zm9.18,13.1h-4.342V318.7h1.006v-1.851h-1.006v-.764h1.006v-1.851h-1.006v-.764h1.006v-1.848h-1.006V309.2h3.109a.189.189,0,0,1,.19.183v.6H570.3a.384.384,0,0,1,.382.382v10.627a.386.386,0,0,1-.382.382Zm-2.77-2.671h2.311v-1.851h-2.311V318.7Zm0-2.615h2.311v-1.851h-2.311v1.851Zm0-2.615h2.311v-1.848h-2.311v1.848Zm-14.4,5.23v-2.075h2.23V318.7Zm0-5.863v-2.075h2.23v2.075Zm0,2.932V313.7h2.23v2.075Z" transform="translate(-549.787 -295.556)" fill="#11c1e0" fill-rule="evenodd"/>
</svg>
