<svg xmlns="http://www.w3.org/2000/svg" width="26.597" height="24.577" viewBox="0 0 26.597 24.577">
  <g id="Grupo_79" data-name="Grupo 79" transform="translate(-1435 -547)">
    <g id="Grupo_78" data-name="Grupo 78" transform="translate(1435 547)">
      <path id="Trazado_70" data-name="Trazado 70" d="M320.07,432.057c0-5.141-3.556-8.476-8.078-9.929a17.653,17.653,0,0,0-4.274-.8,8.8,8.8,0,0,1,4.5,3.9,13.371,13.371,0,0,1,1.8,6.654l1.052-.412a4.516,4.516,0,0,1,3.371-.025l1.634.611ZM305.9,421.325a17.881,17.881,0,0,0-4.348.8c-4.522,1.453-8.078,4.789-8.078,9.929l1.634-.611a4.515,4.515,0,0,1,3.371.025l1.165.458a13.342,13.342,0,0,1,1.8-6.7,8.858,8.858,0,0,1,4.394-3.862l.064-.043Zm-4.512,10.3a11.522,11.522,0,0,1,1.545-5.5,7,7,0,0,1,3.9-3.258,7,7,0,0,1,3.894,3.258,11.521,11.521,0,0,1,1.549,5.542l-.494-.192a16.556,16.556,0,0,0-10.014,0Z" transform="translate(-293.473 -421.325)" fill="#11c1e0" fill-rule="evenodd"/>
      <path id="Trazado_71" data-name="Trazado 71" d="M303.38,434.2c0,5.4-8.2,5.4-8.2,0V433.9h1.947v.309a2.149,2.149,0,0,0,4.3,0v-9.3c0-.771,1.95-.778,1.95-.007Z" transform="translate(-289.106 -413.675)" fill="#11c1e0" fill-rule="evenodd"/>
    </g>
  </g>
</svg>
