<svg xmlns="http://www.w3.org/2000/svg" width="30.781" height="23.002" viewBox="0 0 30.781 23.002">
  <path id="Trazado_60" data-name="Trazado 60" d="M429.908,299.26h4.878a.3.3,0,0,0,.274-.166c1.235-2.334,6.941-2.093,8.583.044a.3.3,0,0,0,.244.122h4.356c1.228,0,6.339-9.9,2.578-16.386.995-.5,1.949-.917,1.446-1.912s-1.409-.6-2.415-.085c-.137.07-.27.137-.4.211-2.167-2.193-5.832-3.683-11.734-3.705a14.179,14.179,0,0,0-5.8,1.172c-.98-1.849-3.554-2.152-5.259-2.3a10.051,10.051,0,0,1,.91,4.93h0c-2.16,1.583-3.876,2.97-5.95,2.555l.03,5.628c3.9,1.864,5.6,9.889,8.254,9.889Zm8.849-18.679a6.915,6.915,0,1,1-6.915,6.915,6.914,6.914,0,0,1,6.915-6.915Zm.363,4.478V286.9a7.248,7.248,0,0,1,1.368.155,1.536,1.536,0,0,1,.85.521,1.82,1.82,0,0,1,.322,1.176,2.692,2.692,0,0,1-.237,1.243,1.366,1.366,0,0,1-.729.647,4.377,4.377,0,0,1-1.346.233h-.229v.71h-.732v-.71a5.485,5.485,0,0,1-1.035-.089,2.182,2.182,0,0,1-.792-.307,1.454,1.454,0,0,1-.521-.61,2.313,2.313,0,0,1-.181-.976l-.007-.244h1.161a2.454,2.454,0,0,0,.074.68.638.638,0,0,0,.229.344.8.8,0,0,0,.359.137c.133.019.37.041.714.063v-2c-.451-.03-.81-.07-1.073-.111a2.05,2.05,0,0,1-.717-.259,1.231,1.231,0,0,1-.5-.562,2.45,2.45,0,0,1-.174-1,1.988,1.988,0,0,1,.3-1.191,1.486,1.486,0,0,1,.839-.558,5.052,5.052,0,0,1,1.317-.148v-.625h.732v.625a6.277,6.277,0,0,1,1.372.177,1.239,1.239,0,0,1,.74.558,2.418,2.418,0,0,1,.259,1.257h-1.139a.7.7,0,0,1-.011-.133.823.823,0,0,0-.211-.662,1.129,1.129,0,0,0-.717-.174Zm-.732,0v1.812a1.842,1.842,0,0,1-.973-.2.835.835,0,0,1-.318-.758.94.94,0,0,1,.133-.566.592.592,0,0,1,.359-.229,3.235,3.235,0,0,1,.618-.056Zm.732,2.807a6.51,6.51,0,0,1,.8.1.716.716,0,0,1,.41.266,1.047,1.047,0,0,1,.159.647.92.92,0,0,1-.281.777,1.421,1.421,0,0,1-.858.214h-.229v-2Zm-.363,4.412a4.785,4.785,0,1,1,3.38-1.4,4.752,4.752,0,0,1-3.38,1.4Zm4.083-.7a5.776,5.776,0,1,1,1.694-4.087,5.754,5.754,0,0,1-1.694,4.087Zm-15.832-8.543a1.032,1.032,0,1,1-.777,1.716.686.686,0,0,0,.274.059.744.744,0,0,0,0-1.483.668.668,0,0,0-.281.067A1.028,1.028,0,0,1,427.008,283.04Z" transform="translate(-421.624 -276.258)" fill="#11c1e0" fill-rule="evenodd"/>
</svg>
