<svg xmlns="http://www.w3.org/2000/svg" width="35.055" height="16.615" viewBox="0 0 35.055 16.615">
  <path id="Trazado_53" data-name="Trazado 53" d="M471.37,532.616c-1.113,0-1.125-5-.488-6.681.484-1.289,3.245-.9,3.409-1.32.949-2.409,3.682-5.115,6.908-5.115h5.623c3.374,0,7.036,3.639,10.625,5.213h.652c4.291.07,6.127,1.851,6.748,3.53.066.191.512.367.55.551.3,1.328-.051,3.8-.363,3.823h-1.808v-.023a4.34,4.34,0,1,0-8.681,0v.023H481.573v-.023a4.342,4.342,0,1,0-8.685,0v.023H471.37Zm5.861-1.746a1.724,1.724,0,1,0,1.726,1.726,1.726,1.726,0,0,0-1.726-1.726Zm0-1.8a3.522,3.522,0,1,0,3.522,3.526,3.524,3.524,0,0,0-3.522-3.526Zm21.652,1.8a1.724,1.724,0,1,0,1.726,1.726,1.723,1.723,0,0,0-1.726-1.726Zm0-1.8a3.522,3.522,0,1,0,3.522,3.526,3.524,3.524,0,0,0-3.522-3.526Zm-22-5.17a.545.545,0,0,0,.473.816h15.483a.539.539,0,0,0,.523-.395.545.545,0,0,0-.226-.605l-.449-.285c-1.648-1.066-4.256-2.823-6.271-2.823h-4.245A5.938,5.938,0,0,0,476.887,523.9Z" transform="translate(-470.456 -519.5)" fill="#11c1e0" fill-rule="evenodd"/>
</svg>
