<svg xmlns="http://www.w3.org/2000/svg" width="31.017" height="28" viewBox="0 0 31.017 28">
  <path id="Trazado_74" data-name="Trazado 74" d="M293.778,283.689l22.65-5.137-.314-1.384a.734.734,0,0,0-.875-.555l-21.227,4.781a.734.734,0,0,0-.554.875c.108.471.213.949.321,1.419Zm-.188-3.55,21.5-4.837a1.912,1.912,0,0,1,2.281,1.44l2.253,9.956h-1.346l-1.022-4.509L294.6,287.326l1.405,6.183.122.551a.409.409,0,0,0,.492.307l.167-.035v1.318l-.024.007a1.588,1.588,0,0,1-1.89-1.2l-2.724-12.034a1.839,1.839,0,0,1,.248-1.44,1.863,1.863,0,0,1,1.193-.844Zm5.579,6.919a1.907,1.907,0,0,0-1.9,1.907v12.383a1.91,1.91,0,0,0,1.9,1.908h22.039a1.912,1.912,0,0,0,1.908-1.908V288.965a1.91,1.91,0,0,0-1.908-1.907Zm21.572,5.548v-2.525a.29.29,0,0,0-.293-.293h-5.639a.3.3,0,0,0-.293.293v2.525a.3.3,0,0,0,.293.293h5.639a.3.3,0,0,0,.293-.293Zm-4.153,7.64a.3.3,0,0,1-.3-.293v-.586a.3.3,0,0,1,.3-.293h3.86a.3.3,0,0,1,.293.293v.586a.3.3,0,0,1-.293.293Zm-5.388,0a.3.3,0,0,1-.293-.293v-.586a.3.3,0,0,1,.293-.293h3.867a.3.3,0,0,1,.293.293v.586a.3.3,0,0,1-.293.293Zm-5.384,0a.292.292,0,0,1-.293-.293v-.586a.292.292,0,0,1,.293-.293h3.864a.3.3,0,0,1,.293.293v.586a.3.3,0,0,1-.293.293Zm-5.384,0a.292.292,0,0,1-.293-.293v-.586a.292.292,0,0,1,.293-.293H304.3a.3.3,0,0,1,.293.293v.586a.3.3,0,0,1-.293.293Z" transform="translate(-292.098 -275.256)" fill="#11c1e0" fill-rule="evenodd"/>
</svg>
