<svg xmlns="http://www.w3.org/2000/svg" width="21.157" height="28" viewBox="0 0 21.157 28">
  <g id="Grupo_77" data-name="Grupo 77" transform="translate(-1437 -547)">
    <path id="Trazado_69" data-name="Trazado 69" d="M361.8,338.488H344.891a2.128,2.128,0,0,0-2.124,2.124v9.762a2.128,2.128,0,0,0,2.124,2.124H361.8a2.131,2.131,0,0,0,2.124-2.124v-9.762a2.131,2.131,0,0,0-2.124-2.124Zm-1.662-1.818v-2.612a6.792,6.792,0,0,0-13.583,0v2.612a.332.332,0,0,1-.333.328H344.11a.327.327,0,0,1-.324-.328v-2.612a9.559,9.559,0,0,1,19.119,0v2.612a.331.331,0,0,1-.328.328h-2.111a.328.328,0,0,1-.328-.328Zm-6.792,4.978a2.159,2.159,0,0,1,1.252,3.92v3.385a1.039,1.039,0,0,1-1.036,1.036h-.432a1.039,1.039,0,0,1-1.036-1.036v-3.385a2.159,2.159,0,0,1,1.252-3.92Z" transform="translate(1094.233 222.501)" fill="#11c1e0" fill-rule="evenodd"/>
  </g>
</svg>
