<svg xmlns="http://www.w3.org/2000/svg" width="36.808" height="28" viewBox="0 0 36.808 28">
  <path id="Trazado_52" data-name="Trazado 52" d="M410.287,312.063h18.239a1.543,1.543,0,1,1,.273,3.071h-18.75a1.542,1.542,0,1,1,.238-3.071Zm5.519-6.091c-.3.261-1.5-2.045.4-3.943a.777.777,0,0,1,1.088,0l.8.8a.8.8,0,0,1-.038,1.172l-2.24,1.971Zm13.147-13.009c.273-.284-2.06-1.506-4.051.3a.77.77,0,0,0-.054,1.084l.761.834c.215.242.561.642.872.319l2.471-2.533Zm-5.211,3.928.415.411a1.118,1.118,0,0,1,0,1.572l-2.625,2.621a1.107,1.107,0,0,1-1.568,0l-.411-.411a1.111,1.111,0,0,1,0-1.572l2.621-2.621a1.106,1.106,0,0,1,1.568,0Zm6.287,7.644a1.373,1.373,0,0,0-1.895,0l-.938.938a1.385,1.385,0,0,0,0,1.895c1.226,1.43,8.432,9.273,11.6,11.76,2.321,1.814,4.946-.565,2.813-3.14-2.656-3.209-10.177-10.211-11.583-11.452Zm1.134-4.3a.951.951,0,0,1-1.341,0l-5.745-5.745a.951.951,0,0,1,0-1.341c4.281-4.281,11.867,2.306,7.087,7.087Zm-7.456-4.25a1.348,1.348,0,0,0-1.895,0l-3.167,3.167a1.34,1.34,0,0,0,0,1.895l4.516,4.516a1.343,1.343,0,0,0,1.891,0l1.583-1.587,1.583-1.583a1.336,1.336,0,0,0,0-1.891l-4.512-4.516ZM422.9,308.5a.951.951,0,0,0,0-1.341l-5.745-5.745a.951.951,0,0,0-1.341,0c-4.254,4.254,2.283,11.894,7.087,7.087Zm8.3,11.233H407.663c-2.852,0-2.725-3.759.181-3.759h23.17C434.038,315.976,434.045,319.734,431.194,319.734Z" transform="translate(-405.592 -291.764)" fill="#11c1e0" fill-rule="evenodd"/>
</svg>
