<svg xmlns="http://www.w3.org/2000/svg" width="28.002" height="28" viewBox="0 0 28.002 28">
  <path id="Trazado_61" data-name="Trazado 61" d="M364.837,421.442a12.693,12.693,0,0,1,2.756,2.073l.046.05a12.628,12.628,0,0,1,2.028,2.711,3.191,3.191,0,0,1-.534,3.844l0,0h0L353.266,445.99a.774.774,0,0,1-.381.211l-9.77,2.8a.814.814,0,0,1-1.006-1.006l2.8-9.77a.756.756,0,0,1,.223-.389l15.854-15.854a3.205,3.205,0,0,1,3.849-.538Zm-19.628,21.651a9.4,9.4,0,0,1,2.893,2.785l3.617-1.039-.6-2.537-3.079.281-.128.008h0a.8.8,0,0,1-.832-.377l-1.109-1.8-.761,2.673Zm23.224-15.485-15.295,15.3.116.79,14.728-14.724h0a1.605,1.605,0,0,0,.459-.9,1.547,1.547,0,0,0-.008-.459Zm-20.641,12.655L364.758,423.3c-.232-.153-.472-.294-.712-.43a1.6,1.6,0,0,0-1-.194,1.581,1.581,0,0,0-.9.459l-15.411,15.411Z" transform="translate(-342.078 -421.031)" fill="#11c1e0" fill-rule="evenodd"/>
</svg>
